<?xml version="1.0" encoding="UTF-8"?> <svg xmlns="http://www.w3.org/2000/svg" width="14" height="14" viewBox="0 0 14 14" fill="none"><g clip-path="url(#clip0_317_6696)"><path d="M12.6875 1.75H1.31251C0.588747 1.75 0 2.33875 0 3.06251V10.9375C0 11.6613 0.588747 12.25 1.31251 12.25H12.6875C13.4113 12.25 14 11.6613 14 10.9375V3.06251C14 2.33875 13.4113 1.75 12.6875 1.75ZM12.6875 2.625C12.7469 2.625 12.8035 2.63733 12.8552 2.65887L7 7.73359L1.14479 2.65887C1.19649 2.63736 1.25304 2.625 1.31248 2.625H12.6875ZM12.6875 11.375H1.31251C1.07112 11.375 0.874996 11.1789 0.874996 10.9375V3.58331L6.71331 8.64319C6.79578 8.71452 6.89789 8.75 7 8.75C7.10211 8.75 7.20422 8.71455 7.28669 8.64319L13.125 3.58331V10.9375C13.125 11.1789 12.9289 11.375 12.6875 11.375Z" fill="white" fill-opacity="0.8"></path></g><defs><clipPath id="clip0_317_6696"><rect width="14" height="14" fill="white"></rect></clipPath></defs></svg> 